<?xml version="1.0" encoding="utf-8"?>
<!-- Generator: Adobe Illustrator 22.0.1, SVG Export Plug-In . SVG Version: 6.00 Build 0)  -->
<svg version="1.1" id="Layer_1" xmlns="http://www.w3.org/2000/svg" xmlns:xlink="http://www.w3.org/1999/xlink" x="0px" y="0px"
	 viewBox="0 0 451.2 58.6" style="enable-background:new 0 0 451.2 58.6;" xml:space="preserve">
<style type="text/css">
	.st0{enable-background:new    ;}
	.st1{fill:#F8235F;}
</style>
<title>unchained-logo</title>
<g class="st0">
	<path class="st1" d="M0,36.8v-7.4L36.6,14v9.8l-22,9.4l22,9.1v9.9L0,36.8z"/>
	<path class="st1" d="M49.9,58.6l-8.1-2.7L64,0l8.1,2.8L49.9,58.6z"/>
</g>
<g class="st0">
	<path class="st1" d="M118.4,54.9v-5h-0.2c-0.4,0.8-1,1.6-1.7,2.3c-0.7,0.7-1.5,1.3-2.4,1.9c-0.9,0.5-2,1-3.1,1.3s-2.3,0.5-3.6,0.5
		c-2.4,0-4.4-0.4-6.1-1.3s-3-2-4-3.3c-1-1.4-1.8-2.9-2.2-4.7c-0.5-1.8-0.7-3.5-0.7-5.4V19h11.9v19.4c0,1,0.1,2,0.2,2.9
		c0.1,0.9,0.4,1.7,0.8,2.4c0.4,0.7,0.9,1.3,1.6,1.7c0.7,0.4,1.6,0.6,2.7,0.6c2.1,0,3.6-0.8,4.7-2.3c1.1-1.5,1.6-3.3,1.6-5.4V19h11.8
		v35.9H118.4z"/>
	<path class="st1" d="M162.5,54.9V35.3c0-1-0.1-2-0.3-2.9s-0.4-1.7-0.8-2.4c-0.4-0.7-0.9-1.2-1.6-1.7c-0.7-0.4-1.6-0.6-2.6-0.6
		c-1.1,0-2,0.2-2.8,0.6c-0.8,0.4-1.5,1-2,1.7s-0.9,1.5-1.2,2.5c-0.3,0.9-0.4,1.9-0.4,2.9v19.5h-11.9V19h11.4v5h0.1
		c0.4-0.8,1-1.5,1.7-2.3c0.7-0.7,1.5-1.4,2.4-1.9s2-1,3.1-1.3s2.3-0.5,3.5-0.5c2.4,0,4.4,0.4,6.1,1.3c1.7,0.9,3,2,4.1,3.3
		c1,1.4,1.8,2.9,2.2,4.7c0.5,1.8,0.7,3.6,0.7,5.3v22.3H162.5z"/>
	<path class="st1" d="M208.1,30.6c-0.7-0.9-1.6-1.6-2.7-2.1c-1.2-0.5-2.3-0.8-3.5-0.8s-2.4,0.3-3.4,0.8s-1.9,1.2-2.6,2
		c-0.7,0.8-1.3,1.8-1.7,2.9c-0.4,1.1-0.6,2.3-0.6,3.5s0.2,2.4,0.6,3.5c0.4,1.1,0.9,2.1,1.7,2.9c0.7,0.8,1.6,1.5,2.7,2
		c1,0.5,2.2,0.7,3.5,0.7c1.2,0,2.4-0.2,3.6-0.7c1.2-0.5,2.1-1.1,2.8-2l6.6,8c-1.5,1.4-3.4,2.6-5.8,3.4c-2.4,0.8-4.8,1.2-7.5,1.2
		c-2.8,0-5.5-0.4-7.9-1.3c-2.5-0.9-4.6-2.1-6.4-3.8c-1.8-1.7-3.2-3.7-4.3-6c-1-2.4-1.6-5-1.6-8c0-2.9,0.5-5.6,1.6-7.9
		c1-2.4,2.5-4.4,4.3-6c1.8-1.7,3.9-2.9,6.4-3.8c2.5-0.9,5.1-1.3,7.9-1.3c1.3,0,2.6,0.1,3.9,0.4c1.3,0.2,2.5,0.6,3.7,1
		s2.3,0.9,3.2,1.5c1,0.6,1.8,1.3,2.6,2L208.1,30.6z"/>
	<path class="st1" d="M243.2,54.9V35.4c0-1-0.1-2-0.2-2.9s-0.4-1.7-0.8-2.4s-0.9-1.2-1.6-1.7c-0.7-0.4-1.5-0.6-2.6-0.6
		c-2.1,0-3.6,0.7-4.8,2.2c-1.1,1.5-1.7,3.3-1.7,5.4v19.5h-11.8V0.4h11.8v23.1h0.1c0.8-1.4,2.1-2.7,3.9-3.9c1.8-1.1,3.9-1.7,6.4-1.7
		c2.4,0,4.5,0.4,6.2,1.3c1.7,0.9,3,2,4,3.3s1.8,2.9,2.2,4.7c0.5,1.8,0.7,3.6,0.7,5.3v22.4H243.2z"/>
	<path class="st1" d="M263.5,23.9c2.1-2,4.6-3.5,7.4-4.5s5.7-1.5,8.6-1.5c3,0,5.6,0.4,7.7,1.1c2.1,0.7,3.8,1.9,5.1,3.5
		s2.2,3.5,2.8,5.9c0.6,2.4,0.9,5.2,0.9,8.5v18h-10.8v-3.8H285c-0.9,1.5-2.3,2.6-4.1,3.5c-1.8,0.8-3.9,1.2-6,1.2
		c-1.4,0-2.9-0.2-4.5-0.6c-1.5-0.4-2.9-1-4.2-1.9c-1.3-0.9-2.3-2-3.1-3.5c-0.8-1.4-1.2-3.2-1.2-5.3c0-2.6,0.7-4.7,2.1-6.3
		s3.2-2.8,5.5-3.7c2.2-0.9,4.7-1.4,7.5-1.7c2.7-0.3,5.4-0.4,8-0.4v-0.6c0-1.8-0.6-3.1-1.9-3.9s-2.8-1.3-4.6-1.3
		c-1.7,0-3.3,0.4-4.9,1.1c-1.6,0.7-2.9,1.6-4,2.6L263.5,23.9z M285.1,39.2h-1.5c-1.3,0-2.6,0.1-3.9,0.2c-1.3,0.1-2.5,0.3-3.5,0.7
		c-1,0.3-1.9,0.8-2.6,1.5c-0.7,0.6-1,1.5-1,2.6c0,0.7,0.2,1.2,0.5,1.7s0.7,0.9,1.2,1.2c0.5,0.3,1,0.5,1.7,0.6
		c0.6,0.1,1.2,0.2,1.8,0.2c2.4,0,4.2-0.7,5.5-2c1.3-1.3,1.9-3.1,1.9-5.4v-1.3H285.1z"/>
	<path class="st1" d="M317.5,7.6c0,0.9-0.2,1.8-0.5,2.6s-0.8,1.5-1.4,2.1s-1.3,1-2.2,1.4c-0.8,0.3-1.7,0.5-2.6,0.5
		c-1.9,0-3.5-0.6-4.8-1.9s-1.9-2.8-1.9-4.6c0-0.9,0.2-1.7,0.5-2.5s0.8-1.5,1.4-2.1s1.3-1,2.2-1.4c0.8-0.4,1.7-0.5,2.7-0.5
		c0.9,0,1.8,0.2,2.6,0.5c0.8,0.3,1.6,0.8,2.2,1.4s1.1,1.3,1.4,2.1S317.5,6.6,317.5,7.6z M304.9,54.9V19h11.8v35.9H304.9z"/>
	<path class="st1" d="M349.6,54.9V35.3c0-1-0.1-2-0.3-2.9c-0.2-0.9-0.4-1.7-0.8-2.4s-0.9-1.2-1.6-1.7c-0.7-0.4-1.6-0.6-2.6-0.6
		c-1.1,0-2,0.2-2.8,0.6c-0.8,0.4-1.5,1-2,1.7s-0.9,1.5-1.2,2.5c-0.3,0.9-0.4,1.9-0.4,2.9v19.5H326V19h11.4v5h0.1
		c0.4-0.8,1-1.5,1.7-2.3c0.7-0.7,1.5-1.4,2.4-1.9s2-1,3.1-1.3s2.3-0.5,3.5-0.5c2.4,0,4.4,0.4,6.1,1.3c1.7,0.9,3,2,4.1,3.3
		c1,1.4,1.8,2.9,2.2,4.7c0.5,1.8,0.7,3.6,0.7,5.3v22.3H349.6z"/>
	<path class="st1" d="M405.9,37.4c0,0.5,0,1,0,1.4c0,0.5,0,0.9-0.1,1.4h-26c0.1,1,0.4,1.9,0.9,2.7s1.2,1.5,1.9,2.1
		c0.8,0.6,1.7,1.1,2.7,1.4c1,0.3,2,0.5,3.1,0.5c1.9,0,3.5-0.3,4.8-1s2.4-1.6,3.2-2.7l8.2,5.2c-1.7,2.4-3.9,4.3-6.7,5.7
		c-2.8,1.3-6,2-9.6,2c-2.7,0-5.2-0.4-7.6-1.3c-2.4-0.8-4.5-2.1-6.3-3.7s-3.2-3.6-4.2-5.9c-1-2.4-1.5-5-1.5-8.1c0-2.9,0.5-5.6,1.5-8
		s2.4-4.4,4.1-6c1.7-1.7,3.8-2.9,6.1-3.9c2.4-0.9,4.9-1.4,7.6-1.4c2.6,0,5.1,0.4,7.3,1.3c2.2,0.9,4.1,2.2,5.7,3.9s2.8,3.7,3.7,6.1
		C405.5,31.6,405.9,34.3,405.9,37.4z M395.1,32.8c0-1.9-0.6-3.5-1.8-4.8c-1.2-1.3-2.9-2-5.3-2c-1.2,0-2.2,0.2-3.2,0.5
		c-1,0.4-1.8,0.9-2.5,1.5s-1.3,1.4-1.7,2.2c-0.4,0.8-0.7,1.7-0.7,2.6H395.1z"/>
	<path class="st1" d="M440.4,54.9v-4.7h-0.1c-1.2,1.8-2.8,3.2-4.9,4.2s-4.4,1.5-6.8,1.5c-2.7,0-5.1-0.5-7.2-1.6s-3.9-2.5-5.4-4.2
		c-1.5-1.8-2.6-3.8-3.3-6.1c-0.8-2.3-1.2-4.7-1.2-7.2s0.4-4.9,1.2-7.2c0.8-2.3,1.9-4.3,3.4-6s3.2-3.1,5.3-4.1c2.1-1,4.4-1.5,7-1.5
		s4.9,0.5,6.7,1.5c1.8,1,3.2,2.1,4.2,3.3h0.1V0.4h11.8v54.5H440.4z M440,36.9c0-1.2-0.2-2.3-0.6-3.4c-0.4-1.1-1-2.1-1.7-3
		s-1.6-1.6-2.7-2.1s-2.3-0.8-3.6-0.8c-1.4,0-2.6,0.3-3.7,0.8s-1.9,1.2-2.7,2.1c-0.7,0.8-1.3,1.8-1.6,2.9c-0.4,1.1-0.5,2.2-0.5,3.4
		s0.2,2.3,0.5,3.4c0.4,1.1,0.9,2.1,1.6,3s1.6,1.6,2.7,2.1s2.3,0.8,3.7,0.8c1.3,0,2.5-0.3,3.6-0.8s2-1.2,2.7-2.1s1.3-1.8,1.7-3
		C439.8,39.1,440,38,440,36.9z"/>
</g>
</svg>
