<?xml version="1.0" standalone="no"?>
<!DOCTYPE svg PUBLIC "-//W3C//DTD SVG 20010904//EN"
 "http://www.w3.org/TR/2001/REC-SVG-20010904/DTD/svg10.dtd">
<svg version="1.0" xmlns="http://www.w3.org/2000/svg"
 width="315.000000pt" height="315.000000pt" viewBox="0 0 315.000000 315.000000"
 preserveAspectRatio="xMidYMid meet">
<metadata>
Created by potrace 1.11, written by Peter Selinger 2001-2013
</metadata>
<g transform="translate(0.000000,315.000000) scale(0.100000,-0.100000)"
fill="#000000" stroke="none">
<path d="M2786 2851 c-5 -7 -226 -563 -522 -1311 -80 -201 -149 -374 -154
-385 -5 -11 -19 -45 -30 -75 -11 -30 -25 -64 -30 -75 -5 -11 -26 -63 -46 -115
-20 -52 -42 -108 -49 -125 -27 -64 -40 -100 -37 -107 1 -5 -2 -8 -8 -8 -5 0
-10 -6 -10 -12 0 -7 -18 -58 -40 -112 -22 -55 -37 -103 -33 -107 8 -7 101 -38
118 -40 6 0 16 -5 23 -11 6 -6 12 -8 12 -5 0 4 20 -2 45 -13 25 -11 45 -18 45
-15 0 2 24 -5 52 -15 l53 -18 92 231 c51 127 93 237 93 244 0 7 5 13 10 13 6
0 9 3 8 7 -2 5 22 69 52 143 30 74 55 137 56 140 0 3 6 18 13 35 7 16 59 149
117 295 58 146 109 274 114 285 5 11 89 220 186 465 97 245 182 459 189 475 8
17 20 46 28 66 l15 37 -112 38 c-61 21 -113 39 -116 39 -3 0 -9 3 -15 7 -22
13 -115 36 -119 29z"/>
<path d="M1385 2164 c-425 -179 -491 -207 -535 -226 -67 -30 -93 -41 -230 -98
-69 -28 -138 -57 -155 -65 -16 -7 -86 -36 -155 -65 -69 -29 -138 -58 -155 -65
-16 -8 -57 -25 -90 -38 l-60 -25 -3 -165 -2 -164 52 -23 c29 -12 67 -28 83
-35 17 -8 59 -26 95 -40 65 -27 95 -39 160 -68 19 -8 64 -27 100 -42 36 -14
89 -37 118 -51 29 -13 58 -24 65 -24 7 0 17 -4 23 -9 5 -4 45 -23 89 -41 44
-18 104 -43 133 -56 29 -13 54 -24 56 -24 5 0 420 -176 473 -200 24 -11 47
-20 51 -20 5 0 26 -9 48 -19 32 -16 40 -17 44 -6 3 8 5 105 5 216 l-1 202
-259 108 c-143 59 -276 114 -295 123 -19 8 -80 33 -135 56 -100 41 -110 45
-175 73 -19 8 -45 18 -57 22 -13 3 -23 9 -23 13 0 7 91 52 104 52 3 0 29 11
58 24 29 14 166 73 303 131 138 59 268 115 290 125 109 48 139 60 150 60 33 0
38 29 39 236 0 113 -1 207 -4 209 -3 2 -95 -35 -205 -81z"/>
</g>
</svg>
